<mxfile host="app.diagrams.net" agent="Mozilla/5.0 (Macintosh; Intel Mac OS X 10_15_7) AppleWebKit/537.36 (KHTML, like Gecko) Chrome/140.0.0.0 Safari/537.36" version="27.0.8" pages="2">
  <diagram name="第 1 页" id="_Jd9BShF9BBfb07B74uf">
    <mxGraphModel dx="1262" dy="680" grid="1" gridSize="10" guides="1" tooltips="1" connect="1" arrows="1" fold="1" page="1" pageScale="1" pageWidth="827" pageHeight="1169" math="0" shadow="0">
      <root>
        <mxCell id="0" />
        <mxCell id="1" parent="0" />
        <mxCell id="AqBexKZJz4OAB5bxrRr2-1" value="" style="rounded=1;whiteSpace=wrap;html=1;sketch=1;hachureGap=4;jiggle=2;curveFitting=1;fontFamily=Architects Daughter;fontSource=https%3A%2F%2Ffonts.googleapis.com%2Fcss%3Ffamily%3DArchitects%2BDaughter;fillColor=none;strokeColor=#36393d;" parent="1" vertex="1">
          <mxGeometry x="144" y="790" width="540" height="310" as="geometry" />
        </mxCell>
        <mxCell id="AqBexKZJz4OAB5bxrRr2-3" value="&lt;font face=&quot;Comic Sans MS&quot; style=&quot;font-size: 20px;&quot;&gt;OS&lt;/font&gt;" style="rounded=1;whiteSpace=wrap;html=1;sketch=1;hachureGap=4;jiggle=2;curveFitting=1;fontFamily=Architects Daughter;fontSource=https%3A%2F%2Ffonts.googleapis.com%2Fcss%3Ffamily%3DArchitects%2BDaughter;fillColor=#bac8d3;strokeColor=#23445d;" parent="1" vertex="1">
          <mxGeometry x="174" y="1020" width="120" height="60" as="geometry" />
        </mxCell>
        <mxCell id="AqBexKZJz4OAB5bxrRr2-4" value="&lt;font face=&quot;Comic Sans MS&quot; style=&quot;font-size: 20px;&quot;&gt;Common&lt;/font&gt;" style="rounded=1;whiteSpace=wrap;html=1;sketch=1;hachureGap=4;jiggle=2;curveFitting=1;fontFamily=Architects Daughter;fontSource=https%3A%2F%2Ffonts.googleapis.com%2Fcss%3Ffamily%3DArchitects%2BDaughter;fillColor=#d0cee2;strokeColor=#56517e;" parent="1" vertex="1">
          <mxGeometry x="354" y="1020" width="120" height="60" as="geometry" />
        </mxCell>
        <mxCell id="AqBexKZJz4OAB5bxrRr2-5" value="&lt;font face=&quot;Comic Sans MS&quot; style=&quot;font-size: 20px;&quot;&gt;buffer Pool&lt;/font&gt;" style="rounded=1;whiteSpace=wrap;html=1;sketch=1;hachureGap=4;jiggle=2;curveFitting=1;fontFamily=Architects Daughter;fontSource=https%3A%2F%2Ffonts.googleapis.com%2Fcss%3Ffamily%3DArchitects%2BDaughter;fillColor=#f5f5f5;fontColor=#333333;strokeColor=#666666;" parent="1" vertex="1">
          <mxGeometry x="174" y="940" width="120" height="60" as="geometry" />
        </mxCell>
        <mxCell id="AqBexKZJz4OAB5bxrRr2-6" value="&lt;font face=&quot;Comic Sans MS&quot; style=&quot;font-size: 20px;&quot;&gt;API Impl&lt;/font&gt;" style="rounded=1;whiteSpace=wrap;html=1;sketch=1;hachureGap=4;jiggle=2;curveFitting=1;fontFamily=Architects Daughter;fontSource=https%3A%2F%2Ffonts.googleapis.com%2Fcss%3Ffamily%3DArchitects%2BDaughter;fillColor=#fff2cc;strokeColor=#d6b656;" parent="1" vertex="1">
          <mxGeometry x="534" y="850" width="120" height="60" as="geometry" />
        </mxCell>
        <mxCell id="AqBexKZJz4OAB5bxrRr2-7" value="&lt;font face=&quot;Comic Sans MS&quot; style=&quot;font-size: 20px;&quot;&gt;index&lt;/font&gt;" style="rounded=1;whiteSpace=wrap;html=1;sketch=1;hachureGap=4;jiggle=2;curveFitting=1;fontFamily=Architects Daughter;fontSource=https%3A%2F%2Ffonts.googleapis.com%2Fcss%3Ffamily%3DArchitects%2BDaughter;fillColor=#b0e3e6;strokeColor=#0e8088;" parent="1" vertex="1">
          <mxGeometry x="354" y="940" width="120" height="60" as="geometry" />
        </mxCell>
        <mxCell id="AqBexKZJz4OAB5bxrRr2-8" value="&lt;font face=&quot;Comic Sans MS&quot; style=&quot;font-size: 20px;&quot;&gt;table&lt;/font&gt;" style="rounded=1;whiteSpace=wrap;html=1;sketch=1;hachureGap=4;jiggle=2;curveFitting=1;fontFamily=Architects Daughter;fontSource=https%3A%2F%2Ffonts.googleapis.com%2Fcss%3Ffamily%3DArchitects%2BDaughter;fillColor=#d0cee2;strokeColor=#56517e;" parent="1" vertex="1">
          <mxGeometry x="534" y="940" width="120" height="60" as="geometry" />
        </mxCell>
        <mxCell id="AqBexKZJz4OAB5bxrRr2-10" value="&lt;font face=&quot;Comic Sans MS&quot; style=&quot;font-size: 20px;&quot;&gt;transaction&lt;/font&gt;" style="rounded=1;whiteSpace=wrap;html=1;sketch=1;hachureGap=4;jiggle=2;curveFitting=1;fontFamily=Architects Daughter;fontSource=https%3A%2F%2Ffonts.googleapis.com%2Fcss%3Ffamily%3DArchitects%2BDaughter;fillColor=#FF99CC;" parent="1" vertex="1">
          <mxGeometry x="174" y="850" width="120" height="60" as="geometry" />
        </mxCell>
        <mxCell id="AqBexKZJz4OAB5bxrRr2-11" value="&lt;font face=&quot;Comic Sans MS&quot; style=&quot;font-size: 20px;&quot;&gt;Adapter&lt;/font&gt;" style="rounded=1;whiteSpace=wrap;html=1;sketch=1;hachureGap=4;jiggle=2;curveFitting=1;fontFamily=Architects Daughter;fontSource=https%3A%2F%2Ffonts.googleapis.com%2Fcss%3Ffamily%3DArchitects%2BDaughter;fillColor=#d5e8d4;strokeColor=#82b366;" parent="1" vertex="1">
          <mxGeometry x="354" y="850" width="120" height="60" as="geometry" />
        </mxCell>
        <mxCell id="AqBexKZJz4OAB5bxrRr2-13" value="&lt;span&gt;&lt;font face=&quot;Comic Sans MS&quot; style=&quot;color: rgb(0, 0, 0); font-size: 22px;&quot;&gt;&lt;span style=&quot;text-align: left; white-space-collapse: preserve;&quot;&gt;Declarative layer&lt;/span&gt;&lt;/font&gt;&lt;/span&gt;" style="rounded=1;whiteSpace=wrap;html=1;sketch=1;hachureGap=4;jiggle=2;curveFitting=1;fontFamily=Architects Daughter;fontSource=https%3A%2F%2Ffonts.googleapis.com%2Fcss%3Ffamily%3DArchitects%2BDaughter;fillColor=#cce5ff;strokeColor=#36393d;" parent="1" vertex="1">
          <mxGeometry x="144" y="710" width="540" height="60" as="geometry" />
        </mxCell>
        <mxCell id="AqBexKZJz4OAB5bxrRr2-15" value="&lt;font face=&quot;Comic Sans MS&quot; style=&quot;font-size: 20px;&quot;&gt;log&lt;/font&gt;" style="rounded=1;whiteSpace=wrap;html=1;sketch=1;hachureGap=4;jiggle=2;curveFitting=1;fontFamily=Architects Daughter;fontSource=https%3A%2F%2Ffonts.googleapis.com%2Fcss%3Ffamily%3DArchitects%2BDaughter;fillColor=#ffcccc;strokeColor=#36393d;" parent="1" vertex="1">
          <mxGeometry x="534" y="1020" width="120" height="60" as="geometry" />
        </mxCell>
        <mxCell id="AqBexKZJz4OAB5bxrRr2-17" value="&lt;div style=&quot;overflow: hidden; position: relative; outline: 0px;&quot; role=&quot;text&quot; tabindex=&quot;0&quot; id=&quot;tw-target-text-container&quot; class=&quot;tw-ta-container F0azHf tw-nfl&quot;&gt;&lt;pre style=&quot;line-height: 36px; background-color: transparent; border: none; padding: 2px 0.14em 2px 0px; position: relative; margin-top: -2px; margin-bottom: -2px; resize: none; overflow: hidden; text-align: left; width: 270px; text-wrap: wrap; overflow-wrap: break-word;&quot; aria-label=&quot;译文：Implementation layer&quot; dir=&quot;ltr&quot; data-ved=&quot;2ahUKEwiBxdPS1oiLAxUbI0QIHVDmNlwQ3ewLegQICxAU&quot; id=&quot;tw-target-text&quot; data-placeholder=&quot;翻译&quot; class=&quot;tw-data-text tw-text-large tw-ta&quot;&gt;&lt;span style=&quot;&quot; lang=&quot;en&quot; class=&quot;Y2IQFc&quot;&gt;&lt;font face=&quot;Comic Sans MS&quot; style=&quot;font-size: 20px;&quot;&gt;Implementation layer&lt;/font&gt;&lt;/span&gt;&lt;/pre&gt;&lt;/div&gt;&lt;div style=&quot;overflow: hidden; position: relative; outline: 0px;&quot; role=&quot;text&quot; tabindex=&quot;0&quot; id=&quot;tw-target-rmn-container&quot; class=&quot;tw-target-rmn tw-ta-container F0azHf tw-nfl&quot;&gt;&lt;pre style=&quot;background-color: transparent; border: none; padding: 0px 0.14em 0px 0px; position: relative; margin-top: 0px; margin-bottom: 0px; resize: none; font-family: inherit; overflow: hidden; text-align: left; width: 270px; text-wrap: wrap; overflow-wrap: break-word; font-size: 16px; line-height: 24px;&quot; dir=&quot;ltr&quot; id=&quot;tw-target-rmn&quot; data-placeholder=&quot;&quot; class=&quot;tw-data-placeholder tw-text-small tw-ta&quot;&gt;&lt;span class=&quot;Y2IQFc&quot;&gt;&lt;/span&gt;&lt;/pre&gt;&lt;/div&gt;&lt;div style=&quot;display: flex; justify-content: space-between; width: 302px; position: absolute; bottom: 0px; left: 0px; height: 48px;&quot; class=&quot;iYB33c&quot;&gt;&lt;div style=&quot;display: flex; margin: 10px 11px 0px auto; color: rgb(232, 232, 232); font-family: Arial, sans-serif; font-size: 0px; text-align: start; background-color: rgb(48, 49, 52);&quot; class=&quot;dlJLJe&quot;&gt;&lt;div style=&quot;visibility: hidden; position: relative;&quot; data-ved=&quot;2ahUKEwiBxdPS1oiLAxUbI0QIHVDmNlwQz_AEegQICxAV&quot; data-cviv=&quot;false&quot;&gt;&lt;span style=&quot;cursor: pointer; outline: 0px; display: inline-block;&quot; tabindex=&quot;0&quot; role=&quot;button&quot; data-width=&quot;0&quot; data-theme=&quot;0&quot; data-hover-open-delay=&quot;500&quot; data-hover-hide-delay=&quot;1000&quot; data-extra-container-classes=&quot;tw-verified-tooltip&quot; class=&quot;c5aZPb&quot;&gt;&lt;div style=&quot;opacity: 0.74; color: var(--COEmY); font-size: 12px; font-style: italic; min-width: 26px; margin: -11px; padding: 11px;&quot; class=&quot;U9URNb&quot;&gt;&lt;img style=&quot;display: block; border: 0px; position: relative; padding-top: 3px;&quot; data-atf=&quot;0&quot; data-csiid=&quot;7IyQZ4GfI5vGkPIP0Mzb4QU_5&quot; alt=&quot;“已经过社区验证”图标&quot; width=&quot;16&quot; height=&quot;16&quot; class=&quot;YQ4gaf zr758c wA1Bge&quot; src=&quot;data:image/png;base64,iVBORw0KGgoAAAANSUhEUgAAABQAAAAUCAQAAAAngNWGAAABDUlEQVR4AYXRgUZDYRjH4TegFTKgpEqiFJgoWAoMEQGBgBboChaaAKxLKAhAhQqAdAmpBIQolkCFqp2nITvNKXuA7+/Hhzey5OWjE4Nq3rzY1f9/NGHPB549492+8Ww060iCS2XdctZdI3GsECmb+HJoIX6x6EgDm+lURTH+YB7V9nAqE5WNme4YKuOiY6iMe6PaQxUUIuTbswgFVNJwA8sO3Bn6yR6bWZMSNtJwDtuWfHpQxaPx9C9zadil7jrCigbq6UXceNIVKTWUIqypm2ytJdTiNyNeXclF6GttOVfeDEc7qzjR23r3OMFqZKng1kw0mXGLrfibHTScOZWgGv9TdC6ROFeMTgwYiIxvJzMRWQbeGZUAAAAASUVORK5CYII=&quot; id=&quot;dimg_7IyQZ4GfI5vGkPIP0Mzb4QU_3&quot;&gt;&lt;span style=&quot;display: inline-block; height: 26px; line-height: 26px; word-break: break-all;&quot; class=&quot;nlMhfd&quot;&gt;&lt;/span&gt;&lt;/div&gt;&lt;/span&gt;&lt;/div&gt;&lt;/div&gt;&lt;/div&gt;" style="text;html=1;align=center;verticalAlign=middle;whiteSpace=wrap;rounded=0;fontFamily=Architects Daughter;fontSource=https%3A%2F%2Ffonts.googleapis.com%2Fcss%3Ffamily%3DArchitects%2BDaughter;" parent="1" vertex="1">
          <mxGeometry x="384" y="800" width="140" height="30" as="geometry" />
        </mxCell>
      </root>
    </mxGraphModel>
  </diagram>
  <diagram id="WW6Nb2nPPJlGDZLNhdGz" name="第 2 页">
    <mxGraphModel dx="1262" dy="680" grid="1" gridSize="10" guides="1" tooltips="1" connect="1" arrows="1" fold="1" page="1" pageScale="1" pageWidth="827" pageHeight="1169" math="0" shadow="0">
      <root>
        <mxCell id="0" />
        <mxCell id="1" parent="0" />
        <mxCell id="BvBUVjAcFYXAKA0jMEyu-1" value="" style="rounded=1;whiteSpace=wrap;html=1;hachureGap=4;fontFamily=Architects Daughter;fontSource=https%3A%2F%2Ffonts.googleapis.com%2Fcss%3Ffamily%3DArchitects%2BDaughter;fillColor=none;strokeColor=#36393d;" vertex="1" parent="1">
          <mxGeometry x="130" y="550" width="540" height="310" as="geometry" />
        </mxCell>
        <mxCell id="BvBUVjAcFYXAKA0jMEyu-2" value="&lt;font face=&quot;Comic Sans MS&quot; style=&quot;font-size: 20px;&quot;&gt;OS&lt;/font&gt;" style="rounded=1;whiteSpace=wrap;html=1;hachureGap=4;fontFamily=Architects Daughter;fontSource=https%3A%2F%2Ffonts.googleapis.com%2Fcss%3Ffamily%3DArchitects%2BDaughter;fillColor=#bac8d3;strokeColor=#23445d;" vertex="1" parent="1">
          <mxGeometry x="160" y="780" width="120" height="60" as="geometry" />
        </mxCell>
        <mxCell id="BvBUVjAcFYXAKA0jMEyu-3" value="&lt;font face=&quot;Comic Sans MS&quot; style=&quot;font-size: 20px;&quot;&gt;Common&lt;/font&gt;" style="rounded=1;whiteSpace=wrap;html=1;hachureGap=4;fontFamily=Architects Daughter;fontSource=https%3A%2F%2Ffonts.googleapis.com%2Fcss%3Ffamily%3DArchitects%2BDaughter;fillColor=#d0cee2;strokeColor=#56517e;" vertex="1" parent="1">
          <mxGeometry x="340" y="780" width="120" height="60" as="geometry" />
        </mxCell>
        <mxCell id="BvBUVjAcFYXAKA0jMEyu-4" value="&lt;font face=&quot;Comic Sans MS&quot; style=&quot;font-size: 20px;&quot;&gt;buffer Pool&lt;/font&gt;" style="rounded=1;whiteSpace=wrap;html=1;hachureGap=4;fontFamily=Architects Daughter;fontSource=https%3A%2F%2Ffonts.googleapis.com%2Fcss%3Ffamily%3DArchitects%2BDaughter;fillColor=#f5f5f5;fontColor=#333333;strokeColor=#666666;" vertex="1" parent="1">
          <mxGeometry x="160" y="700" width="120" height="60" as="geometry" />
        </mxCell>
        <mxCell id="BvBUVjAcFYXAKA0jMEyu-5" value="&lt;font face=&quot;Comic Sans MS&quot; style=&quot;font-size: 20px;&quot;&gt;API Impl&lt;/font&gt;" style="rounded=1;whiteSpace=wrap;html=1;hachureGap=4;fontFamily=Architects Daughter;fontSource=https%3A%2F%2Ffonts.googleapis.com%2Fcss%3Ffamily%3DArchitects%2BDaughter;fillColor=#fff2cc;strokeColor=#d6b656;" vertex="1" parent="1">
          <mxGeometry x="520" y="610" width="120" height="60" as="geometry" />
        </mxCell>
        <mxCell id="BvBUVjAcFYXAKA0jMEyu-6" value="&lt;font face=&quot;Comic Sans MS&quot; style=&quot;font-size: 20px;&quot;&gt;index&lt;/font&gt;" style="rounded=1;whiteSpace=wrap;html=1;hachureGap=4;fontFamily=Architects Daughter;fontSource=https%3A%2F%2Ffonts.googleapis.com%2Fcss%3Ffamily%3DArchitects%2BDaughter;fillColor=#b0e3e6;strokeColor=#0e8088;" vertex="1" parent="1">
          <mxGeometry x="340" y="700" width="120" height="60" as="geometry" />
        </mxCell>
        <mxCell id="BvBUVjAcFYXAKA0jMEyu-7" value="&lt;font face=&quot;Comic Sans MS&quot; style=&quot;font-size: 20px;&quot;&gt;table&lt;/font&gt;" style="rounded=1;whiteSpace=wrap;html=1;hachureGap=4;fontFamily=Architects Daughter;fontSource=https%3A%2F%2Ffonts.googleapis.com%2Fcss%3Ffamily%3DArchitects%2BDaughter;fillColor=#d0cee2;strokeColor=#56517e;" vertex="1" parent="1">
          <mxGeometry x="520" y="700" width="120" height="60" as="geometry" />
        </mxCell>
        <mxCell id="BvBUVjAcFYXAKA0jMEyu-8" value="&lt;font face=&quot;Comic Sans MS&quot; style=&quot;font-size: 20px;&quot;&gt;transaction&lt;/font&gt;" style="rounded=1;whiteSpace=wrap;html=1;hachureGap=4;fontFamily=Architects Daughter;fontSource=https%3A%2F%2Ffonts.googleapis.com%2Fcss%3Ffamily%3DArchitects%2BDaughter;fillColor=#FF99CC;" vertex="1" parent="1">
          <mxGeometry x="160" y="610" width="120" height="60" as="geometry" />
        </mxCell>
        <mxCell id="BvBUVjAcFYXAKA0jMEyu-9" value="&lt;font face=&quot;Comic Sans MS&quot; style=&quot;font-size: 20px;&quot;&gt;Adapter&lt;/font&gt;" style="rounded=1;whiteSpace=wrap;html=1;hachureGap=4;fontFamily=Architects Daughter;fontSource=https%3A%2F%2Ffonts.googleapis.com%2Fcss%3Ffamily%3DArchitects%2BDaughter;fillColor=#d5e8d4;strokeColor=#82b366;" vertex="1" parent="1">
          <mxGeometry x="340" y="610" width="120" height="60" as="geometry" />
        </mxCell>
        <mxCell id="BvBUVjAcFYXAKA0jMEyu-10" value="&lt;span&gt;&lt;font face=&quot;Comic Sans MS&quot; style=&quot;color: rgb(0, 0, 0); font-size: 22px;&quot;&gt;&lt;span style=&quot;text-align: left; white-space-collapse: preserve;&quot;&gt;Declarative layer&lt;/span&gt;&lt;/font&gt;&lt;/span&gt;" style="rounded=1;whiteSpace=wrap;html=1;hachureGap=4;fontFamily=Architects Daughter;fontSource=https%3A%2F%2Ffonts.googleapis.com%2Fcss%3Ffamily%3DArchitects%2BDaughter;fillColor=#cce5ff;strokeColor=#36393d;" vertex="1" parent="1">
          <mxGeometry x="130" y="470" width="540" height="60" as="geometry" />
        </mxCell>
        <mxCell id="BvBUVjAcFYXAKA0jMEyu-11" value="&lt;font face=&quot;Comic Sans MS&quot; style=&quot;font-size: 20px;&quot;&gt;log&lt;/font&gt;" style="rounded=1;whiteSpace=wrap;html=1;hachureGap=4;fontFamily=Architects Daughter;fontSource=https%3A%2F%2Ffonts.googleapis.com%2Fcss%3Ffamily%3DArchitects%2BDaughter;fillColor=#ffcccc;strokeColor=#36393d;" vertex="1" parent="1">
          <mxGeometry x="520" y="780" width="120" height="60" as="geometry" />
        </mxCell>
        <mxCell id="BvBUVjAcFYXAKA0jMEyu-12" value="&lt;div style=&quot;overflow: hidden; position: relative; outline: 0px;&quot; role=&quot;text&quot; tabindex=&quot;0&quot; id=&quot;tw-target-text-container&quot; class=&quot;tw-ta-container F0azHf tw-nfl&quot;&gt;&lt;pre style=&quot;line-height: 36px; background-color: transparent; border: none; padding: 2px 0.14em 2px 0px; position: relative; margin-top: -2px; margin-bottom: -2px; resize: none; overflow: hidden; text-align: left; width: 270px; text-wrap: wrap; overflow-wrap: break-word;&quot; aria-label=&quot;译文：Implementation layer&quot; dir=&quot;ltr&quot; data-ved=&quot;2ahUKEwiBxdPS1oiLAxUbI0QIHVDmNlwQ3ewLegQICxAU&quot; id=&quot;tw-target-text&quot; data-placeholder=&quot;翻译&quot; class=&quot;tw-data-text tw-text-large tw-ta&quot;&gt;&lt;span style=&quot;&quot; lang=&quot;en&quot; class=&quot;Y2IQFc&quot;&gt;&lt;font face=&quot;Comic Sans MS&quot; style=&quot;font-size: 20px;&quot;&gt;Implementation layer&lt;/font&gt;&lt;/span&gt;&lt;/pre&gt;&lt;/div&gt;&lt;div style=&quot;overflow: hidden; position: relative; outline: 0px;&quot; role=&quot;text&quot; tabindex=&quot;0&quot; id=&quot;tw-target-rmn-container&quot; class=&quot;tw-target-rmn tw-ta-container F0azHf tw-nfl&quot;&gt;&lt;pre style=&quot;background-color: transparent; border: none; padding: 0px 0.14em 0px 0px; position: relative; margin-top: 0px; margin-bottom: 0px; resize: none; font-family: inherit; overflow: hidden; text-align: left; width: 270px; text-wrap: wrap; overflow-wrap: break-word; font-size: 16px; line-height: 24px;&quot; dir=&quot;ltr&quot; id=&quot;tw-target-rmn&quot; data-placeholder=&quot;&quot; class=&quot;tw-data-placeholder tw-text-small tw-ta&quot;&gt;&lt;span class=&quot;Y2IQFc&quot;&gt;&lt;/span&gt;&lt;/pre&gt;&lt;/div&gt;&lt;div style=&quot;display: flex; justify-content: space-between; width: 302px; position: absolute; bottom: 0px; left: 0px; height: 48px;&quot; class=&quot;iYB33c&quot;&gt;&lt;div style=&quot;display: flex; margin: 10px 11px 0px auto; color: rgb(232, 232, 232); font-family: Arial, sans-serif; font-size: 0px; text-align: start; background-color: rgb(48, 49, 52);&quot; class=&quot;dlJLJe&quot;&gt;&lt;div style=&quot;visibility: hidden; position: relative;&quot; data-ved=&quot;2ahUKEwiBxdPS1oiLAxUbI0QIHVDmNlwQz_AEegQICxAV&quot; data-cviv=&quot;false&quot;&gt;&lt;span style=&quot;cursor: pointer; outline: 0px; display: inline-block;&quot; tabindex=&quot;0&quot; role=&quot;button&quot; data-width=&quot;0&quot; data-theme=&quot;0&quot; data-hover-open-delay=&quot;500&quot; data-hover-hide-delay=&quot;1000&quot; data-extra-container-classes=&quot;tw-verified-tooltip&quot; class=&quot;c5aZPb&quot;&gt;&lt;div style=&quot;opacity: 0.74; color: var(--COEmY); font-size: 12px; font-style: italic; min-width: 26px; margin: -11px; padding: 11px;&quot; class=&quot;U9URNb&quot;&gt;&lt;img style=&quot;display: block; border: 0px; position: relative; padding-top: 3px;&quot; data-atf=&quot;0&quot; data-csiid=&quot;7IyQZ4GfI5vGkPIP0Mzb4QU_5&quot; alt=&quot;“已经过社区验证”图标&quot; width=&quot;16&quot; height=&quot;16&quot; class=&quot;YQ4gaf zr758c wA1Bge&quot; src=&quot;data:image/png;base64,iVBORw0KGgoAAAANSUhEUgAAABQAAAAUCAQAAAAngNWGAAABDUlEQVR4AYXRgUZDYRjH4TegFTKgpEqiFJgoWAoMEQGBgBboChaaAKxLKAhAhQqAdAmpBIQolkCFqp2nITvNKXuA7+/Hhzey5OWjE4Nq3rzY1f9/NGHPB549492+8Ww060iCS2XdctZdI3GsECmb+HJoIX6x6EgDm+lURTH+YB7V9nAqE5WNme4YKuOiY6iMe6PaQxUUIuTbswgFVNJwA8sO3Bn6yR6bWZMSNtJwDtuWfHpQxaPx9C9zadil7jrCigbq6UXceNIVKTWUIqypm2ytJdTiNyNeXclF6GttOVfeDEc7qzjR23r3OMFqZKng1kw0mXGLrfibHTScOZWgGv9TdC6ROFeMTgwYiIxvJzMRWQbeGZUAAAAASUVORK5CYII=&quot; id=&quot;dimg_7IyQZ4GfI5vGkPIP0Mzb4QU_3&quot;&gt;&lt;span style=&quot;display: inline-block; height: 26px; line-height: 26px; word-break: break-all;&quot; class=&quot;nlMhfd&quot;&gt;&lt;/span&gt;&lt;/div&gt;&lt;/span&gt;&lt;/div&gt;&lt;/div&gt;&lt;/div&gt;" style="text;html=1;align=center;verticalAlign=middle;whiteSpace=wrap;rounded=0;fontFamily=Architects Daughter;fontSource=https%3A%2F%2Ffonts.googleapis.com%2Fcss%3Ffamily%3DArchitects%2BDaughter;" vertex="1" parent="1">
          <mxGeometry x="370" y="560" width="140" height="30" as="geometry" />
        </mxCell>
      </root>
    </mxGraphModel>
  </diagram>
</mxfile>
